<?xml version="1.0" encoding="utf-8"?>
<!-- Generator: Adobe Illustrator 19.2.1, SVG Export Plug-In . SVG Version: 6.00 Build 0)  -->
<svg version="1.1" id="Layer_1" xmlns="http://www.w3.org/2000/svg" xmlns:xlink="http://www.w3.org/1999/xlink" x="0px" y="0px"
	 viewBox="0 0 194 50" style="enable-background:new 0 0 194 50;" xml:space="preserve">
<style type="text/css">
	.st0{fill:#FFFFFF;}
</style>
<g>
	<path class="st0" d="M129.4,1.6h7l-8.3,32.8L117.7,1.6h4.1V0.2h-21.5v1.3h4l4.2,13.3l-5.8,19.9L91.4,1.6h4.9V0.2H73.7v1.3H77
		l0.1,0.3L57.2,47h-0.1L37,1.4h-0.8h-1.4h-19c-7.4,0-13.4,4-13.4,11.8c0,5.8,4.3,10.4,10,10.8v0.1C6.3,24.3,1,28.6,1,35.9
		c0,8.5,6.5,12.9,15.6,12.9h18.1H36h0.1V3h0.1l20.2,45.8h1.5L77.8,3.7l16.8,45.8h6l9-31.3l10.3,31.3h6.1l12.6-47.9h4.6V0.2h-13.9
		L129.4,1.6L129.4,1.6z M3.8,13.2c0-7.1,5.3-10.5,12-10.5h19v20.7h-19C9.6,23.4,3.8,19.9,3.8,13.2z M16,47.5
		C8.3,47.5,2.3,43.7,2.3,36c0-8.3,6.7-11.2,13.5-11.2h19v22.7C34.8,47.5,16,47.5,16,47.5z"/>
	<path class="st0" d="M186.5,5.7c-4.5-3.6-11.1-5.5-19.9-5.5h-21.4v1.3h4.6v45.9h-4.6v1.4h19.6c8.6,0,15.5-1.7,20.4-5.2
		c5.4-3.8,8-10.4,8-19.9C193.2,15.3,191,9.3,186.5,5.7z M178.9,25.9c0,7.7-1,13.3-3,16.7c-2,3.3-5.4,5-10,5h-2.7V1.6h1.7
		c3.5,0,6.1,0.5,8,1.5c4,2.1,5.9,8.4,5.9,18.8V25.9z"/>
</g>
</svg>
